# xmcd
#
# Track frame offsets:
#	150
#	13120
#	22237
#	34557
#	42982
#	59160
#	84335
#	98367
#	107030
#	121132
#	131425
#	143367
#	155897
#	167407
#	204760
#	222860
#	234035
#	249027
#	267347
#	283330
#	294947
#	308085
#	322647
#
# Disc length: 4554 seconds
# Revision: 5
# Processed by: cddbd v1.5.2PL0 Copyright (c) Steve Scherf et al.
# Submitted via: dBpowerAMP V12.0
#
DISCID=2a11c817
DTITLE=Marty Robbins - The Essential Marty Robbins: 1951–1982, Disc 2
DYEAR=1991
DGENRE=Country
TTITLE0=Devil Woman
TTITLE1=Ruby Ann
TTITLE2=Smokin’ Cigarettes and Drinkin’ Coffee Blues
TTITLE3=I’m Gonna Be a Cowboy
TTITLE4=(Ghost) Riders in the Sky
TTITLE5=San Angelo
TTITLE6=Man Walks Among Us
TTITLE7=Beautiful Dreamer
TTITLE8=Beyond the Reef
TTITLE9=The Hawaiian Wedding Song
TTITLE10=Yours (Quiérme mucho)
TTITLE11=Tonight Carmen
TTITLE12=Ribbon of Darkness
TTITLE13=Feleena (from El Paso)
TTITLE14=Hello Heartache
TTITLE15=Begging to You
TTITLE16=I Walk Alone
TTITLE17=You Gave Me a Mountain
TTITLE18=My Woman, My Woman, My Wife
TTITLE19=Among My Souvenirs
TTITLE20=Return to Me
TTITLE21=Some Memories Just Won’t Die
TTITLE22=El Paso City
EXTD=
EXTT0=
EXTT1=
EXTT2=
EXTT3=
EXTT4=
EXTT5=
EXTT6=
EXTT7=
EXTT8=
EXTT9=
EXTT10=
EXTT11=
EXTT12=
EXTT13=
EXTT14=
EXTT15=
EXTT16=
EXTT17=
EXTT18=
EXTT19=
EXTT20=
EXTT21=
EXTT22=
PLAYORDER=
